<mxfile host="Electron" modified="2023-11-12T10:18:55.394Z" agent="Mozilla/5.0 (Windows NT 10.0; Win64; x64) AppleWebKit/537.36 (KHTML, like Gecko) draw.io/22.0.3 Chrome/114.0.5735.289 Electron/25.8.4 Safari/537.36" etag="K2Kk792b5YpGlZ45EVyu" version="22.0.3" type="device">
  <diagram id="C5RBs43oDa-KdzZeNtuy" name="クラス図">
    <mxGraphModel dx="1290" dy="621" grid="1" gridSize="8" guides="1" tooltips="1" connect="1" arrows="1" fold="1" page="1" pageScale="1" pageWidth="827" pageHeight="1169" math="0" shadow="0">
      <root>
        <mxCell id="WIyWlLk6GJQsqaUBKTNV-0" />
        <mxCell id="WIyWlLk6GJQsqaUBKTNV-1" parent="WIyWlLk6GJQsqaUBKTNV-0" />
        <mxCell id="zkfFHV4jXpPFQw0GAbJ--0" value="&lt;&lt;interface&gt;&gt;&#xa;Element" style="swimlane;fontStyle=1;align=center;verticalAlign=top;childLayout=stackLayout;horizontal=1;startSize=40;horizontalStack=0;resizeParent=1;resizeLast=0;collapsible=1;marginBottom=0;rounded=0;shadow=0;strokeWidth=1;" parent="WIyWlLk6GJQsqaUBKTNV-1" vertex="1">
          <mxGeometry x="288" y="88" width="160" height="72" as="geometry">
            <mxRectangle x="230" y="140" width="160" height="26" as="alternateBounds" />
          </mxGeometry>
        </mxCell>
        <mxCell id="zkfFHV4jXpPFQw0GAbJ--4" value="" style="line;html=1;strokeWidth=1;align=left;verticalAlign=middle;spacingTop=-1;spacingLeft=3;spacingRight=3;rotatable=0;labelPosition=right;points=[];portConstraint=eastwest;" parent="zkfFHV4jXpPFQw0GAbJ--0" vertex="1">
          <mxGeometry y="40" width="160" height="8" as="geometry" />
        </mxCell>
        <mxCell id="zkfFHV4jXpPFQw0GAbJ--5" value="void execute(Context)" style="text;align=left;verticalAlign=middle;spacingLeft=4;spacingRight=4;overflow=hidden;rotatable=0;points=[[0,0.5],[1,0.5]];portConstraint=eastwest;" parent="zkfFHV4jXpPFQw0GAbJ--0" vertex="1">
          <mxGeometry y="48" width="160" height="16" as="geometry" />
        </mxCell>
        <mxCell id="3pnfTVdYuzw61fBSVona-0" value="&lt;&lt;interface&gt;&gt;&#xa;Traceable" style="swimlane;fontStyle=1;align=center;verticalAlign=top;childLayout=stackLayout;horizontal=1;startSize=40;horizontalStack=0;resizeParent=1;resizeLast=0;collapsible=1;marginBottom=0;rounded=0;shadow=0;strokeWidth=1;" parent="WIyWlLk6GJQsqaUBKTNV-1" vertex="1">
          <mxGeometry x="288" y="192" width="160" height="40" as="geometry">
            <mxRectangle x="230" y="140" width="160" height="26" as="alternateBounds" />
          </mxGeometry>
        </mxCell>
        <mxCell id="3pnfTVdYuzw61fBSVona-3" value="" style="endArrow=block;endSize=12;endFill=0;html=1;rounded=0;" parent="WIyWlLk6GJQsqaUBKTNV-1" source="3pnfTVdYuzw61fBSVona-0" target="zkfFHV4jXpPFQw0GAbJ--0" edge="1">
          <mxGeometry x="-1" y="-11" width="160" relative="1" as="geometry">
            <mxPoint x="248" y="216" as="sourcePoint" />
            <mxPoint x="456" y="312" as="targetPoint" />
            <mxPoint x="-4" y="6" as="offset" />
          </mxGeometry>
        </mxCell>
        <mxCell id="3pnfTVdYuzw61fBSVona-5" value="&amp;lt;&amp;lt;interface&amp;gt;&amp;gt;&lt;br&gt;Value" style="swimlane;fontStyle=1;align=center;verticalAlign=top;childLayout=stackLayout;horizontal=1;startSize=48;horizontalStack=0;resizeParent=1;resizeParentMax=0;resizeLast=0;collapsible=1;marginBottom=0;whiteSpace=wrap;html=1;" parent="WIyWlLk6GJQsqaUBKTNV-1" vertex="1">
          <mxGeometry x="272" y="287.5" width="104" height="40" as="geometry">
            <mxRectangle x="224" y="320" width="72" height="32" as="alternateBounds" />
          </mxGeometry>
        </mxCell>
        <mxCell id="3pnfTVdYuzw61fBSVona-10" value="Symbol" style="swimlane;fontStyle=1;align=center;verticalAlign=top;childLayout=stackLayout;horizontal=1;startSize=26;horizontalStack=0;resizeParent=1;resizeParentMax=0;resizeLast=0;collapsible=1;marginBottom=0;whiteSpace=wrap;html=1;" parent="WIyWlLk6GJQsqaUBKTNV-1" vertex="1">
          <mxGeometry x="528" y="186" width="80" height="52" as="geometry" />
        </mxCell>
        <mxCell id="3pnfTVdYuzw61fBSVona-11" value="String name" style="text;strokeColor=none;fillColor=none;align=left;verticalAlign=top;spacingLeft=4;spacingRight=4;overflow=hidden;rotatable=0;points=[[0,0.5],[1,0.5]];portConstraint=eastwest;whiteSpace=wrap;html=1;" parent="3pnfTVdYuzw61fBSVona-10" vertex="1">
          <mxGeometry y="26" width="80" height="26" as="geometry" />
        </mxCell>
        <mxCell id="3pnfTVdYuzw61fBSVona-14" value="" style="endArrow=block;dashed=1;endFill=0;endSize=12;html=1;rounded=0;" parent="WIyWlLk6GJQsqaUBKTNV-1" source="3pnfTVdYuzw61fBSVona-10" target="3pnfTVdYuzw61fBSVona-0" edge="1">
          <mxGeometry width="160" relative="1" as="geometry">
            <mxPoint x="112" y="328" as="sourcePoint" />
            <mxPoint x="220" y="275" as="targetPoint" />
          </mxGeometry>
        </mxCell>
        <mxCell id="3pnfTVdYuzw61fBSVona-15" value="Quote" style="swimlane;fontStyle=1;align=center;verticalAlign=top;childLayout=stackLayout;horizontal=1;startSize=34;horizontalStack=0;resizeParent=1;resizeParentMax=0;resizeLast=0;collapsible=1;marginBottom=0;whiteSpace=wrap;html=1;" parent="WIyWlLk6GJQsqaUBKTNV-1" vertex="1">
          <mxGeometry x="188" y="200" width="64" height="24" as="geometry">
            <mxRectangle x="224" y="320" width="72" height="32" as="alternateBounds" />
          </mxGeometry>
        </mxCell>
        <mxCell id="3pnfTVdYuzw61fBSVona-17" value="Array" style="swimlane;fontStyle=1;align=center;verticalAlign=top;childLayout=stackLayout;horizontal=1;startSize=24;horizontalStack=0;resizeParent=1;resizeParentMax=0;resizeLast=0;collapsible=1;marginBottom=0;whiteSpace=wrap;html=1;" parent="WIyWlLk6GJQsqaUBKTNV-1" vertex="1">
          <mxGeometry x="356" y="379" width="96" height="50" as="geometry">
            <mxRectangle x="224" y="320" width="72" height="32" as="alternateBounds" />
          </mxGeometry>
        </mxCell>
        <mxCell id="3pnfTVdYuzw61fBSVona-19" value="Element[] array" style="text;strokeColor=none;fillColor=none;align=left;verticalAlign=top;spacingLeft=4;spacingRight=4;overflow=hidden;rotatable=0;points=[[0,0.5],[1,0.5]];portConstraint=eastwest;whiteSpace=wrap;html=1;" parent="3pnfTVdYuzw61fBSVona-17" vertex="1">
          <mxGeometry y="24" width="96" height="26" as="geometry" />
        </mxCell>
        <mxCell id="3pnfTVdYuzw61fBSVona-20" value="Bool" style="swimlane;fontStyle=1;align=center;verticalAlign=top;childLayout=stackLayout;horizontal=1;startSize=24;horizontalStack=0;resizeParent=1;resizeParentMax=0;resizeLast=0;collapsible=1;marginBottom=0;whiteSpace=wrap;html=1;" parent="WIyWlLk6GJQsqaUBKTNV-1" vertex="1">
          <mxGeometry x="148" y="459" width="96" height="50" as="geometry">
            <mxRectangle x="224" y="320" width="72" height="32" as="alternateBounds" />
          </mxGeometry>
        </mxCell>
        <mxCell id="3pnfTVdYuzw61fBSVona-21" value="boolean value" style="text;strokeColor=none;fillColor=none;align=left;verticalAlign=top;spacingLeft=4;spacingRight=4;overflow=hidden;rotatable=0;points=[[0,0.5],[1,0.5]];portConstraint=eastwest;whiteSpace=wrap;html=1;" parent="3pnfTVdYuzw61fBSVona-20" vertex="1">
          <mxGeometry y="24" width="96" height="26" as="geometry" />
        </mxCell>
        <mxCell id="3pnfTVdYuzw61fBSVona-22" value="" style="endArrow=block;endSize=12;endFill=0;html=1;rounded=0;" parent="WIyWlLk6GJQsqaUBKTNV-1" source="3pnfTVdYuzw61fBSVona-23" target="3pnfTVdYuzw61fBSVona-5" edge="1">
          <mxGeometry x="-1" y="-11" width="160" relative="1" as="geometry">
            <mxPoint x="330" y="387" as="sourcePoint" />
            <mxPoint x="330" y="355" as="targetPoint" />
            <mxPoint x="-4" y="6" as="offset" />
          </mxGeometry>
        </mxCell>
        <mxCell id="3pnfTVdYuzw61fBSVona-23" value="&lt;&lt;interface&gt;&gt;&#xa;Ordered" style="swimlane;fontStyle=1;align=center;verticalAlign=top;childLayout=stackLayout;horizontal=1;startSize=40;horizontalStack=0;resizeParent=1;resizeLast=0;collapsible=1;marginBottom=0;rounded=0;shadow=0;strokeWidth=1;" parent="WIyWlLk6GJQsqaUBKTNV-1" vertex="1">
          <mxGeometry x="232" y="379" width="104" height="40" as="geometry">
            <mxRectangle x="230" y="140" width="160" height="26" as="alternateBounds" />
          </mxGeometry>
        </mxCell>
        <mxCell id="3pnfTVdYuzw61fBSVona-24" value="" style="endArrow=block;dashed=1;endFill=0;endSize=12;html=1;rounded=0;" parent="WIyWlLk6GJQsqaUBKTNV-1" source="3pnfTVdYuzw61fBSVona-25" target="3pnfTVdYuzw61fBSVona-23" edge="1">
          <mxGeometry width="160" relative="1" as="geometry">
            <mxPoint x="172" y="323" as="sourcePoint" />
            <mxPoint x="300" y="427" as="targetPoint" />
          </mxGeometry>
        </mxCell>
        <mxCell id="3pnfTVdYuzw61fBSVona-25" value="Int" style="swimlane;fontStyle=1;align=center;verticalAlign=top;childLayout=stackLayout;horizontal=1;startSize=24;horizontalStack=0;resizeParent=1;resizeParentMax=0;resizeLast=0;collapsible=1;marginBottom=0;whiteSpace=wrap;html=1;" parent="WIyWlLk6GJQsqaUBKTNV-1" vertex="1">
          <mxGeometry x="252" y="459" width="64" height="50" as="geometry">
            <mxRectangle x="224" y="320" width="72" height="32" as="alternateBounds" />
          </mxGeometry>
        </mxCell>
        <mxCell id="3pnfTVdYuzw61fBSVona-26" value="int value" style="text;strokeColor=none;fillColor=none;align=left;verticalAlign=top;spacingLeft=4;spacingRight=4;overflow=hidden;rotatable=0;points=[[0,0.5],[1,0.5]];portConstraint=eastwest;whiteSpace=wrap;html=1;" parent="3pnfTVdYuzw61fBSVona-25" vertex="1">
          <mxGeometry y="24" width="64" height="26" as="geometry" />
        </mxCell>
        <mxCell id="3pnfTVdYuzw61fBSVona-27" value="Str" style="swimlane;fontStyle=1;align=center;verticalAlign=top;childLayout=stackLayout;horizontal=1;startSize=24;horizontalStack=0;resizeParent=1;resizeParentMax=0;resizeLast=0;collapsible=1;marginBottom=0;whiteSpace=wrap;html=1;" parent="WIyWlLk6GJQsqaUBKTNV-1" vertex="1">
          <mxGeometry x="324" y="459" width="80" height="50" as="geometry">
            <mxRectangle x="224" y="320" width="72" height="32" as="alternateBounds" />
          </mxGeometry>
        </mxCell>
        <mxCell id="3pnfTVdYuzw61fBSVona-28" value="String value" style="text;strokeColor=none;fillColor=none;align=left;verticalAlign=top;spacingLeft=4;spacingRight=4;overflow=hidden;rotatable=0;points=[[0,0.5],[1,0.5]];portConstraint=eastwest;whiteSpace=wrap;html=1;" parent="3pnfTVdYuzw61fBSVona-27" vertex="1">
          <mxGeometry y="24" width="80" height="26" as="geometry" />
        </mxCell>
        <mxCell id="3pnfTVdYuzw61fBSVona-30" value="" style="endArrow=block;endSize=12;endFill=0;html=1;rounded=0;" parent="WIyWlLk6GJQsqaUBKTNV-1" source="3pnfTVdYuzw61fBSVona-5" target="3pnfTVdYuzw61fBSVona-0" edge="1">
          <mxGeometry x="-1" y="-11" width="160" relative="1" as="geometry">
            <mxPoint x="380" y="392" as="sourcePoint" />
            <mxPoint x="280" y="336" as="targetPoint" />
            <mxPoint x="-4" y="6" as="offset" />
          </mxGeometry>
        </mxCell>
        <mxCell id="3pnfTVdYuzw61fBSVona-31" value="" style="endArrow=block;dashed=1;endFill=0;endSize=12;html=1;rounded=0;" parent="WIyWlLk6GJQsqaUBKTNV-1" source="3pnfTVdYuzw61fBSVona-17" target="3pnfTVdYuzw61fBSVona-5" edge="1">
          <mxGeometry width="160" relative="1" as="geometry">
            <mxPoint x="488" y="291" as="sourcePoint" />
            <mxPoint x="381" y="252" as="targetPoint" />
          </mxGeometry>
        </mxCell>
        <mxCell id="3pnfTVdYuzw61fBSVona-32" value="" style="endArrow=block;dashed=1;endFill=0;endSize=12;html=1;rounded=0;" parent="WIyWlLk6GJQsqaUBKTNV-1" source="3pnfTVdYuzw61fBSVona-15" target="3pnfTVdYuzw61fBSVona-0" edge="1">
          <mxGeometry width="160" relative="1" as="geometry">
            <mxPoint x="422" y="304" as="sourcePoint" />
            <mxPoint x="315" y="265" as="targetPoint" />
          </mxGeometry>
        </mxCell>
        <mxCell id="3pnfTVdYuzw61fBSVona-33" value="" style="endArrow=block;dashed=1;endFill=0;endSize=12;html=1;rounded=0;" parent="WIyWlLk6GJQsqaUBKTNV-1" source="3pnfTVdYuzw61fBSVona-20" target="3pnfTVdYuzw61fBSVona-23" edge="1">
          <mxGeometry width="160" relative="1" as="geometry">
            <mxPoint x="296" y="467" as="sourcePoint" />
            <mxPoint x="296" y="427" as="targetPoint" />
          </mxGeometry>
        </mxCell>
        <mxCell id="3pnfTVdYuzw61fBSVona-34" value="" style="endArrow=block;dashed=1;endFill=0;endSize=12;html=1;rounded=0;" parent="WIyWlLk6GJQsqaUBKTNV-1" source="3pnfTVdYuzw61fBSVona-27" target="3pnfTVdYuzw61fBSVona-23" edge="1">
          <mxGeometry width="160" relative="1" as="geometry">
            <mxPoint x="296" y="467" as="sourcePoint" />
            <mxPoint x="296" y="427" as="targetPoint" />
          </mxGeometry>
        </mxCell>
        <mxCell id="3pnfTVdYuzw61fBSVona-35" value="value" style="endArrow=open;html=1;endSize=12;startArrow=none;startSize=14;startFill=0;edgeStyle=orthogonalEdgeStyle;rounded=0;" parent="WIyWlLk6GJQsqaUBKTNV-1" source="3pnfTVdYuzw61fBSVona-15" target="zkfFHV4jXpPFQw0GAbJ--0" edge="1">
          <mxGeometry x="0.4634" relative="1" as="geometry">
            <mxPoint x="136" y="208" as="sourcePoint" />
            <mxPoint x="240" y="112" as="targetPoint" />
            <Array as="points">
              <mxPoint x="224" y="112" />
            </Array>
            <mxPoint as="offset" />
          </mxGeometry>
        </mxCell>
        <mxCell id="3pnfTVdYuzw61fBSVona-40" value="&lt;&lt;interface&gt;&gt;&#xa;List" style="swimlane;fontStyle=1;align=center;verticalAlign=top;childLayout=stackLayout;horizontal=1;startSize=40;horizontalStack=0;resizeParent=1;resizeLast=0;collapsible=1;marginBottom=0;rounded=0;shadow=0;strokeWidth=1;" parent="WIyWlLk6GJQsqaUBKTNV-1" vertex="1">
          <mxGeometry x="640" y="265" width="104" height="66" as="geometry">
            <mxRectangle x="230" y="140" width="160" height="26" as="alternateBounds" />
          </mxGeometry>
        </mxCell>
        <mxCell id="3pnfTVdYuzw61fBSVona-42" value="&lt;u&gt;List NIL&lt;/u&gt;" style="text;strokeColor=none;fillColor=none;align=left;verticalAlign=top;spacingLeft=4;spacingRight=4;overflow=hidden;rotatable=0;points=[[0,0.5],[1,0.5]];portConstraint=eastwest;whiteSpace=wrap;html=1;" parent="3pnfTVdYuzw61fBSVona-40" vertex="1">
          <mxGeometry y="40" width="104" height="26" as="geometry" />
        </mxCell>
        <mxCell id="3pnfTVdYuzw61fBSVona-41" value="" style="endArrow=block;endSize=12;endFill=0;html=1;rounded=0;" parent="WIyWlLk6GJQsqaUBKTNV-1" source="3pnfTVdYuzw61fBSVona-40" target="3pnfTVdYuzw61fBSVona-0" edge="1">
          <mxGeometry x="-1" y="-11" width="160" relative="1" as="geometry">
            <mxPoint x="256" y="296" as="sourcePoint" />
            <mxPoint x="464" y="280" as="targetPoint" />
            <mxPoint x="-4" y="6" as="offset" />
          </mxGeometry>
        </mxCell>
        <mxCell id="3pnfTVdYuzw61fBSVona-43" value="Cons" style="swimlane;fontStyle=1;align=center;verticalAlign=top;childLayout=stackLayout;horizontal=1;startSize=34;horizontalStack=0;resizeParent=1;resizeParentMax=0;resizeLast=0;collapsible=1;marginBottom=0;whiteSpace=wrap;html=1;" parent="WIyWlLk6GJQsqaUBKTNV-1" vertex="1">
          <mxGeometry x="660" y="392" width="64" height="24" as="geometry">
            <mxRectangle x="224" y="320" width="72" height="32" as="alternateBounds" />
          </mxGeometry>
        </mxCell>
        <mxCell id="3pnfTVdYuzw61fBSVona-44" value="" style="endArrow=block;dashed=1;endFill=0;endSize=12;html=1;rounded=0;entryX=0.503;entryY=0.994;entryDx=0;entryDy=0;entryPerimeter=0;" parent="WIyWlLk6GJQsqaUBKTNV-1" source="3pnfTVdYuzw61fBSVona-43" target="3pnfTVdYuzw61fBSVona-42" edge="1">
          <mxGeometry width="160" relative="1" as="geometry">
            <mxPoint x="480" y="472" as="sourcePoint" />
            <mxPoint x="406" y="432" as="targetPoint" />
          </mxGeometry>
        </mxCell>
        <mxCell id="3pnfTVdYuzw61fBSVona-45" value="cdr" style="endArrow=open;html=1;endSize=12;startArrow=none;startSize=14;startFill=0;edgeStyle=orthogonalEdgeStyle;rounded=0;" parent="WIyWlLk6GJQsqaUBKTNV-1" source="3pnfTVdYuzw61fBSVona-43" target="zkfFHV4jXpPFQw0GAbJ--0" edge="1">
          <mxGeometry x="0.6423" relative="1" as="geometry">
            <mxPoint x="784" y="392" as="sourcePoint" />
            <mxPoint x="496" y="132" as="targetPoint" />
            <Array as="points">
              <mxPoint x="752" y="404" />
              <mxPoint x="752" y="124" />
            </Array>
            <mxPoint as="offset" />
          </mxGeometry>
        </mxCell>
        <mxCell id="3pnfTVdYuzw61fBSVona-47" value="car" style="endArrow=open;html=1;endSize=12;startArrow=none;startSize=14;startFill=0;edgeStyle=orthogonalEdgeStyle;rounded=0;" parent="WIyWlLk6GJQsqaUBKTNV-1" source="3pnfTVdYuzw61fBSVona-43" target="zkfFHV4jXpPFQw0GAbJ--0" edge="1">
          <mxGeometry x="0.7047" relative="1" as="geometry">
            <mxPoint x="700" y="408" as="sourcePoint" />
            <mxPoint x="512" y="112" as="targetPoint" />
            <Array as="points">
              <mxPoint x="776" y="408" />
              <mxPoint x="776" y="112" />
            </Array>
            <mxPoint as="offset" />
          </mxGeometry>
        </mxCell>
        <mxCell id="3pnfTVdYuzw61fBSVona-52" value="&lt;&lt;interface&gt;&gt;&#xa;Iterable&lt;Element&gt;" style="swimlane;fontStyle=1;align=center;verticalAlign=top;childLayout=stackLayout;horizontal=1;startSize=40;horizontalStack=0;resizeParent=1;resizeLast=0;collapsible=1;marginBottom=0;rounded=0;shadow=0;strokeWidth=1;" parent="WIyWlLk6GJQsqaUBKTNV-1" vertex="1">
          <mxGeometry x="480" y="291" width="128" height="40" as="geometry">
            <mxRectangle x="230" y="140" width="160" height="26" as="alternateBounds" />
          </mxGeometry>
        </mxCell>
        <mxCell id="3pnfTVdYuzw61fBSVona-53" value="" style="endArrow=block;endSize=12;endFill=0;html=1;rounded=0;" parent="WIyWlLk6GJQsqaUBKTNV-1" source="OxbuFzhCwz_rDr16_Zkg-7" target="3pnfTVdYuzw61fBSVona-52" edge="1">
          <mxGeometry x="-1" y="-11" width="160" relative="1" as="geometry">
            <mxPoint x="528" y="304" as="sourcePoint" />
            <mxPoint x="426" y="272" as="targetPoint" />
            <mxPoint x="-4" y="6" as="offset" />
          </mxGeometry>
        </mxCell>
        <mxCell id="3pnfTVdYuzw61fBSVona-54" value="&lt;&lt;interface&gt;&gt;&#xa;Comparable&lt;Element&gt;" style="swimlane;fontStyle=1;align=center;verticalAlign=top;childLayout=stackLayout;horizontal=1;startSize=40;horizontalStack=0;resizeParent=1;resizeLast=0;collapsible=1;marginBottom=0;rounded=0;shadow=0;strokeWidth=1;" parent="WIyWlLk6GJQsqaUBKTNV-1" vertex="1">
          <mxGeometry x="52" y="379" width="144" height="40" as="geometry">
            <mxRectangle x="230" y="140" width="160" height="26" as="alternateBounds" />
          </mxGeometry>
        </mxCell>
        <mxCell id="3pnfTVdYuzw61fBSVona-55" value="" style="endArrow=block;endSize=12;endFill=0;html=1;rounded=0;entryX=1;entryY=0.5;entryDx=0;entryDy=0;" parent="WIyWlLk6GJQsqaUBKTNV-1" source="3pnfTVdYuzw61fBSVona-23" target="3pnfTVdYuzw61fBSVona-54" edge="1">
          <mxGeometry x="-1" y="-11" width="160" relative="1" as="geometry">
            <mxPoint x="349" y="387" as="sourcePoint" />
            <mxPoint x="188" y="399.0000000000001" as="targetPoint" />
            <mxPoint x="-4" y="6" as="offset" />
          </mxGeometry>
        </mxCell>
        <mxCell id="OxbuFzhCwz_rDr16_Zkg-0" value="Context" style="swimlane;fontStyle=1;align=center;verticalAlign=top;childLayout=stackLayout;horizontal=1;startSize=26;horizontalStack=0;resizeParent=1;resizeParentMax=0;resizeLast=0;collapsible=1;marginBottom=0;whiteSpace=wrap;html=1;" vertex="1" parent="WIyWlLk6GJQsqaUBKTNV-1">
          <mxGeometry x="24" y="88" width="184" height="80" as="geometry" />
        </mxCell>
        <mxCell id="OxbuFzhCwz_rDr16_Zkg-1" value="Element[] stack&lt;br&gt;int sp, nest&lt;br&gt;Consumer&amp;lt;String&amp;gt; output, trace" style="text;strokeColor=none;fillColor=none;align=left;verticalAlign=top;spacingLeft=4;spacingRight=4;overflow=hidden;rotatable=0;points=[[0,0.5],[1,0.5]];portConstraint=eastwest;whiteSpace=wrap;html=1;" vertex="1" parent="OxbuFzhCwz_rDr16_Zkg-0">
          <mxGeometry y="26" width="184" height="54" as="geometry" />
        </mxCell>
        <mxCell id="OxbuFzhCwz_rDr16_Zkg-4" value="Reader" style="swimlane;fontStyle=1;align=center;verticalAlign=top;childLayout=stackLayout;horizontal=1;startSize=30;horizontalStack=0;resizeParent=1;resizeLast=0;collapsible=1;marginBottom=0;rounded=0;shadow=0;strokeWidth=1;" vertex="1" parent="WIyWlLk6GJQsqaUBKTNV-1">
          <mxGeometry x="58" y="200" width="116" height="59" as="geometry">
            <mxRectangle x="230" y="140" width="160" height="26" as="alternateBounds" />
          </mxGeometry>
        </mxCell>
        <mxCell id="OxbuFzhCwz_rDr16_Zkg-5" value="" style="line;html=1;strokeWidth=1;align=left;verticalAlign=middle;spacingTop=-1;spacingLeft=3;spacingRight=3;rotatable=0;labelPosition=right;points=[];portConstraint=eastwest;" vertex="1" parent="OxbuFzhCwz_rDr16_Zkg-4">
          <mxGeometry y="30" width="116" height="8" as="geometry" />
        </mxCell>
        <mxCell id="OxbuFzhCwz_rDr16_Zkg-6" value="Element read()" style="text;align=left;verticalAlign=middle;spacingLeft=4;spacingRight=4;overflow=hidden;rotatable=0;points=[[0,0.5],[1,0.5]];portConstraint=eastwest;" vertex="1" parent="OxbuFzhCwz_rDr16_Zkg-4">
          <mxGeometry y="38" width="116" height="16" as="geometry" />
        </mxCell>
        <mxCell id="OxbuFzhCwz_rDr16_Zkg-7" value="&lt;&lt;interface&gt;&gt;&#xa;Collection" style="swimlane;fontStyle=1;align=center;verticalAlign=top;childLayout=stackLayout;horizontal=1;startSize=40;horizontalStack=0;resizeParent=1;resizeLast=0;collapsible=1;marginBottom=0;rounded=0;shadow=0;strokeWidth=1;" vertex="1" parent="WIyWlLk6GJQsqaUBKTNV-1">
          <mxGeometry x="480" y="352" width="136" height="96" as="geometry">
            <mxRectangle x="230" y="140" width="160" height="26" as="alternateBounds" />
          </mxGeometry>
        </mxCell>
        <mxCell id="OxbuFzhCwz_rDr16_Zkg-8" value="" style="line;html=1;strokeWidth=1;align=left;verticalAlign=middle;spacingTop=-1;spacingLeft=3;spacingRight=3;rotatable=0;labelPosition=right;points=[];portConstraint=eastwest;" vertex="1" parent="OxbuFzhCwz_rDr16_Zkg-7">
          <mxGeometry y="40" width="136" height="8" as="geometry" />
        </mxCell>
        <mxCell id="OxbuFzhCwz_rDr16_Zkg-9" value="Element at(int)&#xa;void put(int, Element)&#xa;int size()" style="text;align=left;verticalAlign=middle;spacingLeft=4;spacingRight=4;overflow=hidden;rotatable=0;points=[[0,0.5],[1,0.5]];portConstraint=eastwest;" vertex="1" parent="OxbuFzhCwz_rDr16_Zkg-7">
          <mxGeometry y="48" width="136" height="48" as="geometry" />
        </mxCell>
        <mxCell id="OxbuFzhCwz_rDr16_Zkg-10" value="" style="endArrow=block;endSize=12;endFill=0;html=1;rounded=0;" edge="1" parent="WIyWlLk6GJQsqaUBKTNV-1" source="3pnfTVdYuzw61fBSVona-40" target="OxbuFzhCwz_rDr16_Zkg-7">
          <mxGeometry x="-1" y="-11" width="160" relative="1" as="geometry">
            <mxPoint x="604" y="281" as="sourcePoint" />
            <mxPoint x="466" y="240" as="targetPoint" />
            <mxPoint x="-4" y="6" as="offset" />
          </mxGeometry>
        </mxCell>
        <mxCell id="OxbuFzhCwz_rDr16_Zkg-12" value="" style="endArrow=block;dashed=1;endFill=0;endSize=12;html=1;rounded=0;" edge="1" parent="WIyWlLk6GJQsqaUBKTNV-1" source="3pnfTVdYuzw61fBSVona-17" target="OxbuFzhCwz_rDr16_Zkg-7">
          <mxGeometry width="160" relative="1" as="geometry">
            <mxPoint x="402" y="387" as="sourcePoint" />
            <mxPoint x="384" y="339" as="targetPoint" />
          </mxGeometry>
        </mxCell>
      </root>
    </mxGraphModel>
  </diagram>
</mxfile>
